# xmcd
#
# Track frame offsets:
# 150
# 14569
# 24839
# 38843
# 58683
# 71953
# 94394
# 102261
# 114103
#
# Disc length: 1729 seconds
#
#
# Revision: 0
# Processed by: cddbd v1.5.2PL0 Copyright (c) Steve Scherf et al.
# Submitted via: FreeRIP 2.96 
#
DISCID=7206bf09
DTITLE=Wes Loper - Take Me Home
DYEAR=2000
DGENRE=Country
TTITLE0=Look Our Way
TTITLE1=Can to Cain't
TTITLE2=Come Back To Me
TTITLE3=Keep On Growing
TTITLE4=I Know
TTITLE5=Meant To Be Together
TTITLE6=All Day Blues
TTITLE7=You Make It Hard
TTITLE8=You Think
EXTD=
EXTT0=
EXTT1=
EXTT2=
EXTT3=
EXTT4=
EXTT5=
EXTT6=
EXTT7=
EXTT8=
PLAYORDER=
